<?xml version="1.0" encoding="utf-8"?>
<!-- Generator: Adobe Illustrator 27.5.0, SVG Export Plug-In . SVG Version: 6.00 Build 0)  -->
<svg version="1.1" xmlns="http://www.w3.org/2000/svg" xmlns:xlink="http://www.w3.org/1999/xlink" x="0px" y="0px"
	 viewBox="0 0 1335.6 346" style="enable-background:new 0 0 1335.6 346;" xml:space="preserve">
<style type="text/css">
	.st0{display:none;}
	.st1{display:inline;fill:#040405;}
	.st2{fill-rule:evenodd;clip-rule:evenodd;fill:#FFFFFF;}
	.st3{fill:#FFFFFF;}
	.st4{fill:#41B1CE;}
	.st5{fill-rule:evenodd;clip-rule:evenodd;fill:#050507;}
</style>
<g id="Background" class="st0">
	<rect x="0" y="0" class="st1" width="1335.6" height="346"/>
</g>
<g id="Layer_1">
	<g id="Layer_2-2_00000183944124929363080720000015026139744952686756_">
		<g id="Layer_2-3_00000123417971178147556650000015061782316411633562_">
			<g id="Layer_2-4_00000013898881610797179540000010465390603949850270_">
				<g>
					<path class="st2" d="M122.9,67.5H214c20.8,0,28.4,2.2,36,6.2c7.6,4.1,13.6,10.1,17.7,17.7c4.1,7.6,6.2,15.2,6.2,36v91.1
						c0,20.8-2.2,28.4-6.2,36c-4.1,7.6-10.1,13.6-17.7,17.7c-7.6,4.1-15.2,6.2-36,6.2h-91.1c-20.8,0-28.4-2.2-36-6.2
						c-7.6-4.1-13.6-10.1-17.7-17.7c-4.1-7.6-6.2-15.2-6.2-36v-91.1c0-20.8,2.2-28.4,6.2-36c4.1-7.6,10.1-13.6,17.7-17.7
						C94.5,69.7,102,67.5,122.9,67.5z"/>
					<g>
						<path class="st3" d="M971,237.6c-29.6,0-51-21.5-51-51.2s21.5-51.2,51-51.2s50.8,21.5,50.8,51.2S1000.5,237.6,971,237.6z
							 M971,149.1c-20.2,0-34.2,15.3-34.2,37.2s14.1,37.2,34.2,37.2s34-15.3,34-37.2S991.1,149.1,971,149.1z"/>
						<path class="st3" d="M1234.6,237.6c-21.9,0-37-11.8-39.5-30.8l-0.1-0.7c0-0.3,0-0.4,0.1-0.5c0.1-0.1,0.2-0.2,0.4-0.2h14.8
							c0.2,0,0.4,0.2,0.5,0.4c0.1,0.3,0.1,0.6,0.1,0.8c2.2,10.8,10.8,17,23.7,17c11.8,0,20.4-6.2,20.4-14.8c0-13-12.1-15-24.8-17.1
							c-15.3-2.5-32.8-5.4-32.8-28.5c0-16.8,13.9-28,34.7-28s34.9,10.1,37.8,26.4c0.1,0.3,0.2,1.2,0.3,2.4c0,0.1,0,0.3-0.1,0.4
							s-0.2,0.2-0.4,0.2H1255c-0.2,0-0.4-0.2-0.5-0.4c-0.3-1.4-0.4-1.6-0.4-1.7c-3-10.1-13.7-13.7-21.9-13.7
							c-11.4,0-18.8,5.4-18.8,13.9c0,11.8,11.4,13.5,23.6,15.2c16.1,2.3,34.4,5,34.4,30.6C1271.3,226.1,1256.9,237.6,1234.6,237.6
							L1234.6,237.6z"/>
						<path class="st3" d="M1072.5,236c-9.8,0-17.9-3-23.4-8.6c-5.8-5.9-8.5-14.5-8.2-25.4v-44.2l-1.2-0.1c-5.6-0.3-11.1-1-16.3-1.9
							l-0.2-0.3l2.8-14.1l0.3-0.2c4.3,0.8,8.8,1.3,13.3,1.6l1.4,0.1l0-32.9c0-0.1,0.1-0.3,0.3-0.3h15.8c0.1,0,0.3,0.1,0.3,0.3v32.7
							l1.4-0.1c8.6-0.7,16.5-2.4,24.9-5.1l0.3,0.2l4.7,13.6l-0.2,0.3c-10,3.3-19.5,5.2-30,6l-1.2,0.1V202c0,12,6.8,18.9,18.5,18.9
							h10.3c0.1,0,0.3,0.1,0.3,0.3v14.6c0,0.1-0.1,0.3-0.3,0.3L1072.5,236L1072.5,236z"/>
						<path class="st3" d="M889.4,236c-0.1,0-0.3-0.1-0.3-0.3v-57.2c0-16.4-9.7-27.4-24.2-27.4c-16,0-27.6,13-27.6,31v53.6
							c0,0.1-0.1,0.3-0.3,0.3h-17.6c-0.1,0-0.3-0.1-0.3-0.3v-98.9c0-0.1,0.1-0.3,0.3-0.3h17.6c0.1,0,0.3,0.1,0.3,0.3V156l1.9-3.9
							c5.5-10.8,17-16.9,31.1-16.9c22.1,0,36.9,15.9,36.9,39.7v61c0,0.1-0.1,0.3-0.3,0.3H889.4L889.4,236z"/>
						<path class="st3" d="M748.1,236.7c-28.4,0-46.7-19.8-46.7-50.4s18.2-50.4,46.5-50.4c12.7,0,25.3,6.5,30.8,12.6l2.3,2.5V95.7
							c0-0.1,0.1-0.3,0.3-0.3h16.1c0.1,0,0.3,0.1,0.3,0.3v140.1c0,0.1-0.1,0.3-0.3,0.3h-16.1c-0.1,0-0.3-0.1-0.3-0.3v-14.3l-2.3,3.4
							C773.3,232.3,762,236.7,748.1,236.7L748.1,236.7z M750.5,149.9c-19.3,0-32.3,14.7-32.3,36.5s13,36.5,32.3,36.5
							s32.5-14.7,32.5-36.5S769.9,149.9,750.5,149.9L750.5,149.9z"/>
						<path class="st3" d="M402.7,237.6c-16,0-30.9-5.5-41.9-15.4c-12.7-11.4-19.3-28.2-19.3-48.5s6.8-37.1,19.6-48.5
							c11.1-9.9,26.1-15.4,42.4-15.4c24.5,0,42.9,13.7,50.3,37.6c0.1,0.2,0,0.4-0.1,0.5s-0.3,0.3-0.5,0.3c0,0-14.6,2.4-14.6,2.4
							c-0.3,0-0.6-0.1-0.7-0.4c-7.7-17.6-18.3-25.5-34.5-25.5c-26.9,0-44.9,19.7-44.9,49s18,49.6,44.8,49.6
							c21.5,0,37.1-13.2,37.1-31.4c0-1.1,0-1.5-0.1-1.9v-0.4l0-0.7l-1.2,0.1c-3.6,0.4-6.8,0.6-9.9,0.6c-6.6,0-12-0.9-18.6-2.4
							c-0.3-0.1-0.6-0.4-0.5-0.8l2.6-13.3c0.1-0.3,0.3-0.5,0.6-0.5c6.3,1.4,12.5,2.1,18.5,2.1c9.2,0,18.4-1.5,28.1-4.7
							c0,0,0.1,0,0.1,0c0.4,0,0.6,0.2,0.7,0.4l4,12.9c0.1,0.2,0,0.4,0,0.5c-0.1,0.2-0.2,0.3-0.4,0.3c-2.1,0.5-4.2,1-6.2,1.4
							l-2.9,0.6l1.3,49.2c0,0.2-0.1,0.3-0.2,0.5s-0.3,0.2-0.5,0.2H442c-0.4,0-0.6-0.3-0.6-0.6V219l-2.1,2.8
							C431.7,232,418.7,237.6,402.7,237.6L402.7,237.6z"/>
						<path class="st3" d="M1139.2,237.6c-15.7-0.4-28-5.6-36.7-15.3c-10.4-11.6-13.2-27.6-12.3-38.6c3.2-38.4,31.4-48.6,47.6-48.6
							c18.5,0,31.9,8.4,39.9,25c6.1,12.7,6.6,25.4,6.6,25.5c0,0.2-0.1,0.4-0.4,0.5c-18.6,6.6-35.1,9.7-52.1,9.7
							c-7,0-13.9-1.2-22.9-2.9c0,0-0.1,0-0.1,0c-0.6,0-1,0.2-1.3,0.5c-0.3,0.3-0.4,0.8-0.3,1.2c2.9,18.2,18.6,29,32.2,29
							c15.6-0.1,24.9-6,28.7-18c0-0.1,0.2-0.2,0.3-0.2c0,0,13.1,0,16.7,0c0.3,0,0.2,0.3,0.2,0.3c-4.2,19.4-21.8,31.9-44.6,31.9
							C1140.2,237.6,1139.7,237.6,1139.2,237.6L1139.2,237.6z M1138.1,148.6c-1.1,0-2.2,0.1-3.3,0.2c-7.8,0.7-14.6,4.5-19.8,10.9
							c-5.6,6.9-7.3,14.2-7.7,16.3c-0.1,0.5,0,1,0.2,1.4c0.2,0.4,0.6,0.6,1.1,0.8c8.1,2.1,16.6,3.2,25.2,3.2
							c10.2,0,20.7-1.4,32.2-4.4c0.4-0.1,0.8-0.4,1.1-0.8c0.3-0.5,0.3-1,0.3-1.1C1166.9,167.9,1159.1,148.6,1138.1,148.6
							L1138.1,148.6z"/>
						<path class="st3" d="M639.5,237.7c-29.6,0-51-21.5-51-51.2s21.5-51.2,51-51.2s50.8,21.5,50.8,51.2S669,237.7,639.5,237.7z
							 M639.5,149.2c-20.2,0-34.2,15.3-34.2,37.2s14.1,37.1,34.2,37.1s34-15.3,34-37.1S659.5,149.2,639.5,149.2z"/>
						<path class="st3" d="M526.2,237.7c-29.6,0-51-21.5-51-51.2s21.5-51.2,51-51.2s50.8,21.5,50.8,51.2S555.7,237.7,526.2,237.7z
							 M526.2,149.2c-20.1,0-34.2,15.3-34.2,37.2s14.1,37.1,34.2,37.1c20.2,0,34-15.3,34-37.1S546.3,149.2,526.2,149.2z"/>
					</g>
					<g>
						<g>
							<path class="st4" d="M192,119.4L192,119.4l-81.9,0v0c-4.7,0-6,1.2-6,6c0,4.7,1.2,6,6,6v0H192v0c4.7,0,6-1.2,6-6
								C198,120.7,196.8,119.4,192,119.4z"/>
							<path class="st4" d="M185.5,223.1L185.5,223.1c-2.1,1.9-13,11.2-27,8.6c-8.9-1.6-14.5-7.3-16.3-9.2c-8.9-9.1-9.8-20.5-9.8-25
								c0-2.7-1.7-5-4.3-5.8c-2.6-0.7-5.3,0.3-6.7,2.6c-2.2,3.6-5.1,6.6-8.4,9.1c-1.8,1.3-3.8,2.5-6,3.4l0,0c-4.4,1.9-5,3.5-3.1,7.8
								c1.9,4.4,3.5,5,7.8,3.1l0,0c2.9-1.2,5.7-2.8,8.2-4.6c0.8-0.6,1.6-1.2,2.4-1.9c1.8,6.2,5.1,13.3,11.3,19.7
								c2.5,2.5,10,10.2,22.7,12.5c2.4,0.4,4.7,0.6,6.9,0.6c16,0,27.8-10,30.3-12.2v0c3.5-3.2,3.6-4.9,0.4-8.4
								S188.9,219.9,185.5,223.1z"/>
							<path class="st4" d="M177,160.8L177,160.8L177,160.8l-16.6,0h-50.2v0c-4.7,0-6,1.2-6,6c0,4.7,1.2,6,6,6v0h50.2H177h0v0
								c4.7,0,6-1.2,6-6C182.9,162.1,181.7,160.8,177,160.8z"/>
						</g>
						<path class="st5" d="M246.9,121.8c2.6-7.3-1.1-15.3-8.4-18c-7.3-2.6-15.3,1.1-18,8.4l-24.1,66.3c-0.9,2.3-1.3,4.8-1.2,7.3
							L196,209c0.1,3.9,4.9,5.6,7.5,2.7l15.5-17.3c1.7-1.9,3-4,3.8-6.4L246.9,121.8z"/>
					</g>
				</g>
			</g>
		</g>
	</g>
	<g>
		<path class="st3" d="M1260.7,109.5h12.6v2.8h-4.8v13h-3.1v-13h-4.8V109.5z M1275.9,109.5h3.6l4.6,11.4l4.6-11.4h3.6v15.9h-2.9
			v-10.2l-4.1,10.2h-2.5l-4.1-10.2v10.2h-2.9V109.5z"/>
	</g>
</g>
</svg>
